<mxfile host="app.diagrams.net" modified="2023-10-24T00:38:37.668Z" agent="Mozilla/5.0 (Windows NT 10.0; Win64; x64) AppleWebKit/537.36 (KHTML, like Gecko) Chrome/107.0.0.0 Safari/537.36" etag="xxbAHmHFZx6fKILuWZ3A" version="22.0.6" type="github">
  <diagram name="第 1 页" id="h8VDr9jLJ3I33wLGXxpZ">
    <mxGraphModel dx="545" dy="329" grid="1" gridSize="10" guides="1" tooltips="1" connect="1" arrows="1" fold="1" page="1" pageScale="1" pageWidth="827" pageHeight="1169" math="0" shadow="0">
      <root>
        <mxCell id="0" />
        <mxCell id="1" parent="0" />
        <mxCell id="QAVnU2C8utsnKcptrO-X-1" value="负责人" style="html=1;whiteSpace=wrap;fillColor=#dae8fc;strokeColor=#6c8ebf;gradientColor=#7ea6e0;" vertex="1" parent="1">
          <mxGeometry x="170" y="380" width="90" height="40" as="geometry" />
        </mxCell>
        <mxCell id="QAVnU2C8utsnKcptrO-X-2" value="会员登录界面" style="html=1;whiteSpace=wrap;fillColor=#dae8fc;strokeColor=#6c8ebf;gradientColor=#7ea6e0;" vertex="1" parent="1">
          <mxGeometry x="340" y="500" width="90" height="40" as="geometry" />
        </mxCell>
        <mxCell id="QAVnU2C8utsnKcptrO-X-3" value="会员" style="html=1;whiteSpace=wrap;fillColor=#dae8fc;strokeColor=#6c8ebf;gradientColor=#7ea6e0;" vertex="1" parent="1">
          <mxGeometry x="470" y="380" width="90" height="40" as="geometry" />
        </mxCell>
        <mxCell id="QAVnU2C8utsnKcptrO-X-4" value="会员列表" style="html=1;whiteSpace=wrap;fillColor=#dae8fc;strokeColor=#6c8ebf;gradientColor=#7ea6e0;" vertex="1" parent="1">
          <mxGeometry x="324" y="290" width="90" height="40" as="geometry" />
        </mxCell>
        <mxCell id="QAVnU2C8utsnKcptrO-X-6" value="1 输入人员信息" style="text;align=center;verticalAlign=middle;resizable=0;points=[];autosize=1;strokeColor=none;fillColor=none;fontSize=9;rotation=45;" vertex="1" parent="1">
          <mxGeometry x="210" y="450" width="110" height="30" as="geometry" />
        </mxCell>
        <mxCell id="QAVnU2C8utsnKcptrO-X-9" value="2.创建会员" style="text;align=center;verticalAlign=middle;resizable=0;points=[];autosize=1;strokeColor=none;fillColor=none;fontSize=9;" vertex="1" parent="1">
          <mxGeometry x="460" y="450" width="80" height="30" as="geometry" />
        </mxCell>
        <mxCell id="QAVnU2C8utsnKcptrO-X-11" value="" style="endArrow=open;endFill=1;endSize=12;html=1;rounded=0;exitX=0.75;exitY=1;exitDx=0;exitDy=0;entryX=-0.037;entryY=0.382;entryDx=0;entryDy=0;entryPerimeter=0;" edge="1" parent="1" source="QAVnU2C8utsnKcptrO-X-1" target="QAVnU2C8utsnKcptrO-X-2">
          <mxGeometry width="160" relative="1" as="geometry">
            <mxPoint x="340" y="410" as="sourcePoint" />
            <mxPoint x="500" y="410" as="targetPoint" />
          </mxGeometry>
        </mxCell>
        <mxCell id="QAVnU2C8utsnKcptrO-X-16" value="" style="endArrow=open;endFill=1;endSize=12;html=1;rounded=0;exitX=1;exitY=0.5;exitDx=0;exitDy=0;entryX=0.222;entryY=1;entryDx=0;entryDy=0;entryPerimeter=0;" edge="1" parent="1" source="QAVnU2C8utsnKcptrO-X-2" target="QAVnU2C8utsnKcptrO-X-3">
          <mxGeometry width="160" relative="1" as="geometry">
            <mxPoint x="340" y="410" as="sourcePoint" />
            <mxPoint x="500" y="410" as="targetPoint" />
          </mxGeometry>
        </mxCell>
        <mxCell id="QAVnU2C8utsnKcptrO-X-17" value="" style="endArrow=open;endFill=1;endSize=12;html=1;rounded=0;entryX=1.002;entryY=0.868;entryDx=0;entryDy=0;entryPerimeter=0;exitX=0.5;exitY=0;exitDx=0;exitDy=0;" edge="1" parent="1" source="QAVnU2C8utsnKcptrO-X-3" target="QAVnU2C8utsnKcptrO-X-4">
          <mxGeometry width="160" relative="1" as="geometry">
            <mxPoint x="340" y="410" as="sourcePoint" />
            <mxPoint x="500" y="410" as="targetPoint" />
          </mxGeometry>
        </mxCell>
        <mxCell id="QAVnU2C8utsnKcptrO-X-18" value="3.进入列表" style="text;align=center;verticalAlign=middle;resizable=0;points=[];autosize=1;strokeColor=none;fillColor=none;fontSize=9;" vertex="1" parent="1">
          <mxGeometry x="430" y="320" width="80" height="30" as="geometry" />
        </mxCell>
        <mxCell id="QAVnU2C8utsnKcptrO-X-19" value="" style="endArrow=open;endFill=1;endSize=12;html=1;rounded=0;exitX=1.008;exitY=0.111;exitDx=0;exitDy=0;exitPerimeter=0;" edge="1" parent="1" source="QAVnU2C8utsnKcptrO-X-1" target="QAVnU2C8utsnKcptrO-X-4">
          <mxGeometry width="160" relative="1" as="geometry">
            <mxPoint x="340" y="410" as="sourcePoint" />
            <mxPoint x="500" y="410" as="targetPoint" />
          </mxGeometry>
        </mxCell>
        <mxCell id="QAVnU2C8utsnKcptrO-X-20" value="4.查询信息" style="text;align=center;verticalAlign=middle;resizable=0;points=[];autosize=1;strokeColor=none;fillColor=none;fontSize=9;" vertex="1" parent="1">
          <mxGeometry x="225" y="330" width="80" height="30" as="geometry" />
        </mxCell>
      </root>
    </mxGraphModel>
  </diagram>
</mxfile>
